# xmcd
#
# Track frame offsets:
#	150
#	18442
#	30097
#	45052
#	68567
#	86884
#	100529
#	121672
#	136584
#	156672
#	175549
#	191299
#	207797
#	225234
#	239154
#
# Disc length: 3405 seconds
#
# Revision: 1
# Processed by: cddbd v1.5.1PL0 Copyright (c) Steve Scherf et al.
# Submitted via: audiograbber 1.83.01
#
DISCID=a50d4b0f
DTITLE=Various Artist - MH003
DYEAR=1900
DGENRE=Karaoke
TTITLE0=George Strait - Carrying Your Love With Me
TTITLE1=Kenny Chesney - How Forever Feels
TTITLE2=Bob Carlisle - Butterfly Kisses
TTITLE3=Lonestar - Amazed
TTITLE4=Tim McGraw - Indian Outlaw
TTITLE5=Tim McGraw - Please Remember me
TTITLE6=Brooks and Dunn - Boot Scootin Boogie
TTITLE7=Garth Brooks - Friends In Low Places
TTITLE8=Tim McGraw - Don't Take The Girl
TTITLE9=Garth Brooks - The Thunder Rolls
TTITLE10=Clint Black - Like The Rain
TTITLE11=Garth Brooks - The Dance
TTITLE12=Collin Raye - That's My Story
TTITLE13=Billy Ray Cyrus - Achy Breaky Heart
TTITLE14=Vince Gill - Pocket Full Of Gold
EXTD=
EXTT0=
EXTT1=
EXTT2=
EXTT3=
EXTT4=
EXTT5=
EXTT6=
EXTT7=
EXTT8=
EXTT9=
EXTT10=
EXTT11=
EXTT12=
EXTT13=
EXTT14=
PLAYORDER=
